# Blender v2.82 (sub 7) OBJ File: ''
# www.blender.org
mtllib untitled.mtl
o Cube_Cube.001
v -0.898982 0.069507 0.777140
v -1.000000 1.000000 1.000000
v -0.898982 0.069507 -2.307860
v -1.000000 1.000000 -2.530720
v 0.898982 0.069507 0.777140
v 1.000000 1.000000 1.000000
v 0.898982 0.069507 -2.307860
v 1.000000 1.000000 -2.530720
vt 0.834924 0.040295
vt 1.000000 0.000000
vt 1.000000 0.638383
vt 0.834924 0.598089
vt 0.000000 0.656648
vt 0.168753 0.638383
vt 0.168753 1.000000
vt 0.000000 0.981735
vt 0.669849 0.040295
vt 0.834924 0.000000
vt 0.834924 0.638383
vt 0.669849 0.598089
vt 0.521494 0.901145
vt 0.352741 0.919410
vt 0.352741 0.557794
vt 0.521493 0.576059
vt 0.352741 0.000000
vt 0.669848 0.000000
vt 0.669849 0.557794
vt 0.352741 0.557794
vt 0.352741 0.638383
vt 0.000000 0.638383
vt 0.000000 0.000000
vt 0.352741 0.000000
vn -0.9942 -0.1079 0.0000
vn 0.0000 -0.2329 -0.9725
vn 0.9942 -0.1079 0.0000
vn 0.0000 -0.2329 0.9725
vn 0.0000 -1.0000 0.0000
vn 0.0000 1.0000 0.0000
usemtl None
s off
f 1/1/1 2/2/1 4/3/1 3/4/1
f 3/5/2 4/6/2 8/7/2 7/8/2
f 7/9/3 8/10/3 6/11/3 5/12/3
f 5/13/4 6/14/4 2/15/4 1/16/4
f 3/17/5 7/18/5 5/19/5 1/20/5
f 8/21/6 4/22/6 2/23/6 6/24/6
